<?xml version="1.0" encoding="utf-8"?>
<!-- Generator: Adobe Illustrator 22.0.0, SVG Export Plug-In . SVG Version: 6.00 Build 0)  -->
<svg version="1.1" id="Capa_1" xmlns="http://www.w3.org/2000/svg" xmlns:xlink="http://www.w3.org/1999/xlink" x="0px" y="0px"
	 viewBox="0 0 512 512" style="enable-background:new 0 0 512 512;" xml:space="preserve">
<style type="text/css">
	.st0{fill:#333372;}
</style>
<g>
	<g>
		<path class="st0" d="M505.2,244.2C453.8,155.5,358.3,100.3,256,100.3S58.2,155.5,6.8,244.2L0,256l6.8,11.8
			C58.2,356.5,153.7,411.7,256,411.7c102.3,0,197.8-55.1,249.2-143.9L512,256L505.2,244.2z M354.5,215.7c0,10.9-3,21.1-8,29.9
			c-10.4,17.9-29.7,30.1-51.9,30.1c-33.1,0-59.9-26.8-59.9-59.9c0-26.2,16.8-48.4,40.2-56.5c6.2-2.1,12.8-3.4,19.7-3.4
			C327.7,155.8,354.5,182.7,354.5,215.7z M180.6,300.8c2-12,12.3-21.2,24.9-21.2c14,0,25.3,11.3,25.3,25.3
			c0,11.5-7.7,21.1-18.3,24.2c-2.3,0.7-4.6,1.1-7,1.1c-14,0-25.3-11.3-25.3-25.3C180.2,303.4,180.4,302.1,180.6,300.8z M54.9,256
			c20.6-31.3,48.1-56.9,79.7-75.4c-11.3,20-17.8,43.1-17.8,67.7c0,35.6,13.6,68,35.8,92.6C113.4,322.2,79.4,293.1,54.9,256z
			 M356.8,342.2c22.9-24.7,37-57.6,37-93.9c0-25.1-6.9-48.7-18.6-69C407.7,197.9,436,224,457,256
			C432.1,293.9,397.1,323.6,356.8,342.2z"/>
	</g>
</g>
</svg>
