<?xml version="1.0" encoding="utf-8"?>
<!-- Generator: Adobe Illustrator 22.0.0, SVG Export Plug-In . SVG Version: 6.00 Build 0)  -->
<svg version="1.1" id="Capa_1" xmlns="http://www.w3.org/2000/svg" xmlns:xlink="http://www.w3.org/1999/xlink" x="0px" y="0px"
	 viewBox="0 0 512 512" style="enable-background:new 0 0 512 512;" xml:space="preserve">
<style type="text/css">
	.st0{fill:#333372;}
	.st1{fill:none;stroke:#333372;stroke-width:27;stroke-linecap:round;stroke-miterlimit:10;}
</style>
<path class="st0" d="M457,256L457,256c-25,37.9-60,67.6-100.3,86.3C291,374,211,372,152.6,340.9c-38-18.1-71.1-46-95.4-81.5
	c-1.5-2.1-3.9-3.5-6.5-3.5H13.6c-6.1,0-9.8,6.6-6.8,11.8l0,0C58.2,356.5,153.7,411.7,256,411.7c102.3,0,197.8-55.1,249.2-143.9l0,0
	c3-5.2-0.7-11.8-6.8-11.8H457z"/>
<path class="st1" d="M81.4,327.5c0,0-16,44.5-47,43.5"/>
<path class="st1" d="M137.4,370.9c0,0-16,44.5-47,43.5"/>
<path class="st1" d="M198.5,401c0,0-16,44.5-47,43.5"/>
<path class="st1" d="M279.5,401c0,0-16,44.5-47,43.5"/>
<path class="st1" d="M353.1,379.8c0,0-2.3,47.2-32.2,55.3"/>
<path class="st1" d="M426.8,333.2c0,0,16.4,65.9-17.7,84.8"/>
</svg>
